<?xml version="1.0" encoding="UTF-8"?> <svg xmlns="http://www.w3.org/2000/svg" id="Layer_1" data-name="Layer 1" width="2.79in" height="0.67in" viewBox="0 0 200.78 48.05"><defs><style>.cls-1,.cls-3{fill:#231f20;}.cls-1,.cls-2{fill-rule:evenodd;}.cls-2{fill:#8b0e04;}.cls-4{fill:none;stroke:#231f20;stroke-miterlimit:2.61;stroke-width:0.28px;}</style></defs><title>talk of the town website logo</title><path class="cls-1" d="M22.2,3.65c16.19,0,19.35.89,20.26,1.92,1.13,1,1.35,3.47,1.59,7.14.22,3.36.34,7.9.35,12.79s-.11,9.71-.33,13.22c-.25,4-.47,6.51-1.67,7.48-1,1-4.31,1.85-20.2,1.85V46.94c10.28,0,20.57-.52,19.54-1.54,2.06,2.05,2.06-41.15,0-39.09,1-1-9.26-1.54-19.54-1.54Zm0,44.4c-17.1,0-19.67-1-20.39-2.08a2.57,2.57,0,0,1-.4-.52C.24,43.42,0,33.68,0,25.85S.24,8.28,1.41,6.26a2.57,2.57,0,0,1,.4-.52C2.53,4.65,5.1,3.65,22.2,3.65h0V4.77c-10.29,0-20.57.51-19.54,1.54C.6,4.25.6,47.45,2.66,45.4c-1,1,9.25,1.54,19.54,1.54v1.11Z"></path><path class="cls-1" d="M34.78,36.81c.55.55-8.24.68-12,.39.05.14.1.19.16.14-.66.65,13.07.65,12.41,0,.66.65.66-13.08,0-12.42.06-.06,0-.11-.14-.16C35.46,28.58,35.33,37.36,34.78,36.81Z"></path><path class="cls-1" d="M11.41,13.17c-.55-.56,8.23-.69,12.05-.39-.05-.14-.1-.2-.16-.14.66-.66-13.07-.66-12.42,0-.65-.66-.65,13.07,0,12.42-.05.05,0,.11.14.15C10.73,21.4,10.86,12.61,11.41,13.17Z"></path><path class="cls-2" d="M7.55,29.76s0,0,0-.06l-.12-.06.08.14Z"></path><path class="cls-2" d="M9.59,27.6a2.66,2.66,0,0,0-.42.57l-.5.36A6.22,6.22,0,0,1,9.59,27.6Z"></path><path class="cls-2" d="M15.88,22.24c-1.29,1-3.3,2.78-6,5.21H9.73a1.65,1.65,0,0,0,.53-.7l.12,0,.28-.2c0-.12.2-.31.56-.57.58-.42,1.36-1,2.33-1.8S15.42,22.57,15.88,22.24Z"></path><polygon class="cls-2" points="10.55 27.11 10.52 27.13 10.5 27.09 10.53 27.07 10.55 27.11"></polygon><polygon class="cls-2" points="10.74 26.81 10.71 26.84 10.67 26.76 10.7 26.74 10.74 26.81"></polygon><polygon class="cls-2" points="10.78 26.89 10.75 26.91 10.73 26.87 10.76 26.85 10.78 26.89"></polygon><path class="cls-2" d="M16.72,21.62l-.59.44.19-.14.15-.11Z"></path><path class="cls-2" d="M27,14.66l-.12.06Q27,14.77,27,14.66Z"></path><path class="cls-2" d="M25.74,12.14a91.62,91.62,0,0,0-9.51,6.05,46.75,46.75,0,0,0-5.53,4.59c-1.69,1.66-3.56,3.67-4.21,6-.47,1.67.38,3.83,2.41,3.93-1.36-1.43-1.75-2.26-.44-3.94l-.83.8-.09-.08q2.07-3.28,8.14-7.7a76.56,76.56,0,0,1,11.2-7.09l-.05,0a.82.82,0,0,0,0-.18l.43-.26.24,0-.32.45.88-.23.12.12-.37.27v-.06a20.2,20.2,0,0,1-1.39,1.79c-.63.93-1.36,1.8-1.93,2.78a72.86,72.86,0,0,0-3.92,8.28C18.33,33,16.23,38.32,15.64,44c-.11,1.08-.19.52-.09,1.3a2.64,2.64,0,0,1,2.25.57c1-.53,2.25,1.5,2.56,1.46,0-.26.1-1,.18-2.3a10.94,10.94,0,0,1,.12-3.94c0-2.2,1.53-5.54,1.67-5.85A24.69,24.69,0,0,0,24,30.46c.54-1.83,1.58-3.51,2.24-5.29s1.57-3.28,2.34-4.91A18.42,18.42,0,0,1,30.9,16a17.56,17.56,0,0,1,2.54-3.09,6,6,0,0,0,2.31-5.08A40.14,40.14,0,0,0,25.74,12.14Z"></path><path class="cls-2" d="M47.19,6.72a1.11,1.11,0,0,1-.27.13V6.76a1.23,1.23,0,0,1,.26-.08v0Zm-.27.72.19-.07a2.69,2.69,0,0,1,.5-.41l.87-.36c0-.08-.1-.11-.23-.08a.17.17,0,0,0-.11.14,1,1,0,0,1-.39,0,1,1,0,0,0-.53.29,1.11,1.11,0,0,1-.3.2v.25Zm0-2.2a11.89,11.89,0,0,1,1.73-.13,4.06,4.06,0,0,1,2.22.73,2.6,2.6,0,0,1,1,1.17A.17.17,0,0,1,52,7a8.61,8.61,0,0,1-.18-1q-.6-1.62-3.06-1.71a.74.74,0,0,0-.4-.1h0a2.17,2.17,0,0,0-.41,0,1.48,1.48,0,0,1-.8,0l-.21,0Zm0,1.61-.27,0,.27-.12v.09Zm0-2.57c-1,.17-2,.35-2.86.55V7l.16-.12a3,3,0,0,1,.61-.42,1.25,1.25,0,0,1-.43,0,.46.46,0,0,1,.29-.32A.52.52,0,0,0,45,6c.06-.12.19-.17.39-.14a.66.66,0,0,0,.52-.23.73.73,0,0,1,.47-.27l.57-.07v-1Zm0,2.91v.25l-.44.17-.06.17a.27.27,0,0,1-.29,0c0,.1-.1.17-.24.21s-.23.12-.24.25-.75.68-1.59,1.09V8.07a.35.35,0,0,0,0-.08,6.44,6.44,0,0,0,1-.46,2.49,2.49,0,0,1,1-.34.52.52,0,0,1-.21.19,1.62,1.62,0,0,0,.73-.19.39.39,0,0,0,.24,0Zm-2.86.21.29-.18a.41.41,0,0,0-.29.08v.1Zm0-.19,0-.06h0Zm0-2.38V7a1.74,1.74,0,0,1-.5.28.15.15,0,0,0,.21,0c.1,0,.16,0,.19,0l.1,0v.1c-.28.16-.52.3-.72.43V5l.72-.17Zm0,2.31h0v.1l0,0V7.14Zm0,.93V9.32l-.72.33V8.41l.06-.05-.06,0V8.2l.1.05a.76.76,0,0,0,.36,0A.52.52,0,0,0,44.06,8.07ZM43.34,5V7.83l-.5.32h.24s0,0,0,.08a.48.48,0,0,1,.23,0v.13l0,0,0,.16a.33.33,0,0,1,.06-.06V9.65l-.82.36V8.58l.17-.08-.17,0V5.2Zm-.82.2V8.54l-.05,0a.31.31,0,0,0-.13.1l.18-.08V10l-.82.35a38.6,38.6,0,0,1-5,1.88,22.78,22.78,0,0,0-4.47,1.91c-.44.23-1.34,1.35-1.94,1.3s-.69-1.45-.82-2c-.3-1.23-.93-1.16-1.81-1.77a.25.25,0,0,1,.08-.34c.12-.1.16-.18.12-.22a2.39,2.39,0,0,0,.91-.37c0-.1.09-.15.23-.15,1.28-.62,2.24-1.07,2.88-1.37a2.16,2.16,0,0,0,.68-.36c1.83-.71,3.19-1.26,4.07-1.63,0-.1.18-.16.5-.18,1.65-.63,2.74-1,3.26-1.22C41,5.62,41.75,5.4,42.52,5.2Z"></path><path class="cls-3" d="M62.32,26.86a4.1,4.1,0,0,1-2.89,1.59,3,3,0,0,1-2.13-.95A7.84,7.84,0,0,1,55.67,25a5,5,0,0,1-.62,1.88,4,4,0,0,1-1,1.13,3.33,3.33,0,0,1-1.14.55,4.46,4.46,0,0,1-1.09.14,2.88,2.88,0,0,1-1.5-.37,3.37,3.37,0,0,1-1.06-1A4.06,4.06,0,0,1,48.64,26a5.88,5.88,0,0,1,0-3,4.27,4.27,0,0,1,.61-1.31,3.09,3.09,0,0,1,1-.93,2.79,2.79,0,0,1,1.39-.35,1.93,1.93,0,0,1,.88.21,3,3,0,0,1,1.29,1.15,1.39,1.39,0,0,1,.2.67s-.05.08-.14.08a.42.42,0,0,1-.29-.08,4.59,4.59,0,0,0-.25-.49,3.09,3.09,0,0,0-.4-.57,2.18,2.18,0,0,0-.61-.46,1.84,1.84,0,0,0-.88-.19,2,2,0,0,0-1,.26,2.13,2.13,0,0,0-.7.7,3,3,0,0,0-.41,1,5.06,5.06,0,0,0-.13,1.17,6.62,6.62,0,0,0,.19,1.58,4.84,4.84,0,0,0,.56,1.42,3.71,3.71,0,0,0,.9,1,1.85,1.85,0,0,0,1.16.41A3.08,3.08,0,0,0,53.31,28a3,3,0,0,0,1.09-.79,4,4,0,0,0,.73-1.27,4.79,4.79,0,0,0,.28-1.71,3.38,3.38,0,0,1-.22-.58A7,7,0,0,1,55,22.9q-.08-.41-.12-.81a6.24,6.24,0,0,1,0-.69c0-.31.06-.47.17-.47a.35.35,0,0,1,.26.13,1,1,0,0,1,.2.34,1.88,1.88,0,0,1,.14.42c0,.14,0,.26.07.36a4.17,4.17,0,0,1,.06.45c0,.2,0,.4.05.62s0,.49.06.78a10.11,10.11,0,0,0,.49,1.43,6.42,6.42,0,0,0,.77,1.33,4.11,4.11,0,0,0,1,1,2.22,2.22,0,0,0,1.24.37,2.7,2.7,0,0,0,1.24-.34A5,5,0,0,0,62,26.63Z"></path><path class="cls-3" d="M70.45,26.86a4.12,4.12,0,0,1-2.9,1.59A3.22,3.22,0,0,1,65.91,28a4.14,4.14,0,0,1-1-.8v-.78a4.61,4.61,0,0,0,1.13,1.22,2.5,2.5,0,0,0,1.47.47,2.74,2.74,0,0,0,1.25-.34,5.29,5.29,0,0,0,1.39-1.16l.29.23ZM64.92,5.76a1.54,1.54,0,0,1,.52-.09,1.9,1.9,0,0,1,1.81,1.07,5.93,5.93,0,0,1,.56,2.8,15.16,15.16,0,0,1-.33,3,24.86,24.86,0,0,1-.92,3.31,26.26,26.26,0,0,1-1.42,3.27c-.07.14-.14.28-.22.41v-.95a27.69,27.69,0,0,0,1.14-2.93,21.42,21.42,0,0,0,.77-3.06,16.68,16.68,0,0,0,.26-2.75,6.37,6.37,0,0,0-.46-2.65,1.54,1.54,0,0,0-1.48-1,.91.91,0,0,0-.23,0Zm0,21.46a4.78,4.78,0,0,1-.34-.42,8.51,8.51,0,0,1-1-1.85,16,16,0,0,1-.77-2.31,8.93,8.93,0,0,1-1.73,1.59l-.18-.17a8.2,8.2,0,0,0,.94-.84c.3-.31.6-.64.89-1a24.57,24.57,0,0,1-.48-3.05A30.56,30.56,0,0,1,62.06,16a32.16,32.16,0,0,1,.23-3.86A19.37,19.37,0,0,1,63,8.83,7.83,7.83,0,0,1,64,6.53a2.15,2.15,0,0,1,.91-.77v.46a1.51,1.51,0,0,0-.76.75,8,8,0,0,0-.76,2.08,23.63,23.63,0,0,0-.47,3,33.73,33.73,0,0,0-.18,3.55c0,1,0,2,.12,3s.19,2,.35,2.92a18.52,18.52,0,0,0,1.63-2.82l.07-.15v.95A17.67,17.67,0,0,1,63.3,22,18.86,18.86,0,0,0,64,24.42a10,10,0,0,0,.91,1.94l.06.08Z"></path><path class="cls-3" d="M82.07,32.47c0,.08-.06.12-.17.12a.41.41,0,0,1-.32-.18,13.73,13.73,0,0,0-2.37-3,18.92,18.92,0,0,0-2.75-2.17,17.06,17.06,0,0,0-2.62-1.37l-.42-.16v-.33a13.16,13.16,0,0,1,1.74.74,18.35,18.35,0,0,1,3,1.88,16.4,16.4,0,0,1,2.37,2.24A11.7,11.7,0,0,1,82,32.41l0,.06ZM73.42,5.67h.15a1.9,1.9,0,0,1,1.81,1.07,6.06,6.06,0,0,1,.56,2.8,15.83,15.83,0,0,1-.29,2.85,21.67,21.67,0,0,1-.84,3.15,25.24,25.24,0,0,1-1.31,3.15l-.08.15V17.69c.34-.81.64-1.62.89-2.42A24.44,24.44,0,0,0,75,12.42a16.54,16.54,0,0,0,.23-2.59,6.35,6.35,0,0,0-.47-2.65,1.54,1.54,0,0,0-1.33-1V5.67Zm0,17.75L74,23a12.4,12.4,0,0,0,1.4-1.46,9.07,9.07,0,0,0,.87-1.27c.21-.39.37-.69.49-.93s.15-.17.23-.17a.32.32,0,0,1,.2.09.24.24,0,0,1,.12.2,2.59,2.59,0,0,1-.48,1.24,8.56,8.56,0,0,1-1.18,1.43,13.39,13.39,0,0,1-1.72,1.45l-.47.32Zm0,2.24a11,11,0,0,0-1.59-.5c0,.46,0,.94,0,1.43v1.54a.29.29,0,0,1-.08.22.27.27,0,0,1-.18.07.18.18,0,0,1-.2-.14c0-.54,0-1.08,0-1.61s0-1.05,0-1.57l-.29.13-.29.13a.34.34,0,0,1-.17,0c-.12,0-.17,0-.17-.09s.07-.17.23-.23l.69-.35c0-.42,0-.85,0-1.27s0-.85,0-1.27a10.35,10.35,0,0,1-2.11,2.05L69,24.06A11.25,11.25,0,0,0,70.2,23a13,13,0,0,0,1.08-1.33c0-1.74-.08-3.44-.14-5.11s-.09-3.38-.09-5.16a14.16,14.16,0,0,1,.12-1.65,10.46,10.46,0,0,1,.4-1.88,5.5,5.5,0,0,1,.78-1.53,1.54,1.54,0,0,1,1.07-.63v.52h-.14a1,1,0,0,0-.91.69,6,6,0,0,0-.49,1.58,12.93,12.93,0,0,0-.21,1.7c0,.55,0,.91,0,1.09,0,.81,0,1.6,0,2.37s0,1.54,0,2.33,0,1.57,0,2.38,0,1.66,0,2.55a20.07,20.07,0,0,0,1.44-2.72l.2-.47v1.15a21,21,0,0,1-1.62,2.7v.64c0,.19,0,.4,0,.62s0,.46,0,.72v.94a14.14,14.14,0,0,0,1.59-1v.45a18.22,18.22,0,0,1-1.59,1v.06a11,11,0,0,1,1.59.43Z"></path><path class="cls-3" d="M95.57,24a8.82,8.82,0,0,1-1.63,1.1,6,6,0,0,1-1.55.55,3.21,3.21,0,0,1-1.2,2.24,3.55,3.55,0,0,1-1.4.67v-.35a2.66,2.66,0,0,0,1.27-.6A2.78,2.78,0,0,0,92,25.68a1.19,1.19,0,0,1-.25,0H91.5a4.25,4.25,0,0,1-1.71-.34v-.47l.32.15a4.14,4.14,0,0,0,1.62.32H92v-.12a4.89,4.89,0,0,0-.38-2,5.14,5.14,0,0,0-.91-1.44,3.75,3.75,0,0,0-.94-.78v-.59h0a4.15,4.15,0,0,1,1.25,1A5.43,5.43,0,0,1,92,23a5.37,5.37,0,0,1,.39,2.11v.2a5.77,5.77,0,0,0,1.45-.45,5.9,5.9,0,0,0,1.47-1Zm-5.78,4.56a3.59,3.59,0,0,1-.81.09,3.85,3.85,0,0,1-1.39-.27,3.44,3.44,0,0,1-1.2-.81V26.21c0,.06,0,.11.08.16a4.5,4.5,0,0,0,.33-1.17,8.76,8.76,0,0,0,.1-1.35,6.53,6.53,0,0,0-.12-1.34c-.07-.38-.16-.56-.26-.56a.3.3,0,0,0-.13,0v-.44l.22,0c.23,0,.41.21.54.62a5.3,5.3,0,0,1,.18,1.46,7.42,7.42,0,0,1-.17,1.59,4.52,4.52,0,0,1-.55,1.45,3.67,3.67,0,0,0,1.06,1.16,2.71,2.71,0,0,0,1.63.46,2.63,2.63,0,0,0,.49,0v.35Zm0-3.2v-.47a4.38,4.38,0,0,1-1-.7,4.17,4.17,0,0,1-.89-1.26,3.58,3.58,0,0,1-.34-1.51.75.75,0,0,1,.25-.6,1,1,0,0,1,.65-.2,2.57,2.57,0,0,1,1.11.3,1.55,1.55,0,0,1,.22.12v-.59a2.84,2.84,0,0,0-1.24-.33,1.4,1.4,0,0,0-1,.34,1.34,1.34,0,0,0-.39,1.08,3.82,3.82,0,0,0,.32,1.56,4.14,4.14,0,0,0,.89,1.33,4.42,4.42,0,0,0,1.38.93Zm-3.4,2.21,0,0a4.31,4.31,0,0,1-.86-1.4,5.47,5.47,0,0,1-.34-2,4.24,4.24,0,0,1,.37-1.85,1.19,1.19,0,0,1,.86-.76V22c-.15.05-.26.21-.34.47a3.93,3.93,0,0,0-.16,1.24A7,7,0,0,0,86,25a5.2,5.2,0,0,0,.37,1.2Z"></path><path class="cls-3" d="M105,25.39a.31.31,0,0,1-.1.24.45.45,0,0,1-.33.1q-1.56.46-3.18,1c-.63.21-1.26.44-1.9.67v-.65c1-.41,1.9-.77,2.71-1.05a8.68,8.68,0,0,1,2.43-.62c.25,0,.37.09.37.29ZM99.49,5.67h.16a1.9,1.9,0,0,1,1.81,1.07,5.93,5.93,0,0,1,.56,2.8,14.69,14.69,0,0,1-.29,2.83,22.27,22.27,0,0,1-.82,3.13,24.78,24.78,0,0,1-1.3,3.12l-.12.23V17.74a21.72,21.72,0,0,0,.91-2.52,22.49,22.49,0,0,0,.67-2.85,16,16,0,0,0,.23-2.54,6.37,6.37,0,0,0-.46-2.65,1.54,1.54,0,0,0-1.35-1Zm0,21.75L98.12,28q0,1.8.06,3.15c0,.91,0,1.74.06,2.5s0,1.47,0,2.13,0,1.31,0,2c0,.23-.07.34-.23.34s-.1,0-.14-.14c0-1.14,0-2.56-.09-4.27s-.1-3.54-.17-5.51a69.79,69.79,0,0,0-6.77,3.17A45.24,45.24,0,0,0,85,35.05a.76.76,0,0,1-.43.17A.23.23,0,0,1,84.3,35a.4.4,0,0,1,.14-.26c1-.64,2-1.28,3.11-1.94s2.24-1.29,3.38-1.89,2.29-1.19,3.43-1.75,2.23-1.07,3.27-1.54c0-.92-.07-1.83-.1-2.73s-.07-1.81-.1-2.73a11.32,11.32,0,0,1-2.17,2.11l-.18-.17a12.34,12.34,0,0,0,2.32-2.49c0-1.31-.08-2.5-.1-3.56s-.06-2-.09-2.9,0-1.67-.07-2.37,0-1.36,0-2a10.18,10.18,0,0,1,.13-1.54,7.66,7.66,0,0,1,.42-1.68,4.06,4.06,0,0,1,.78-1.35,1.59,1.59,0,0,1,1-.54v.52h-.13a1.07,1.07,0,0,0-1,.6,5.23,5.23,0,0,0-.49,1.38,9.93,9.93,0,0,0-.19,1.5c0,.49,0,.82,0,1,0,1.1,0,2.53,0,4.31s.1,3.71.18,5.81a23.61,23.61,0,0,0,1.41-2.69c.06-.12.11-.24.16-.36v1.11a21.34,21.34,0,0,1-1.57,2.6c0,.49,0,.92,0,1.32s0,.81,0,1.24,0,.92,0,1.45,0,1.17,0,1.92l1.4-.61Z"></path><path class="cls-3" d="M136.87,5.93a.17.17,0,0,1-.09.14Q132,7.75,126.63,9.76T115.76,14a23.82,23.82,0,0,1-1.45,4.23c-.25.56-.52,1.09-.81,1.61V18.77c.11-.24.22-.48.32-.73A22.94,22.94,0,0,0,115,14.31l-1.51.62v-.4l1.59-.65a13.56,13.56,0,0,0,.29-1.75,14.63,14.63,0,0,0,.09-1.58,6.49,6.49,0,0,0-.36-2.37,1.19,1.19,0,0,0-1.11-.9.93.93,0,0,0-.5.16V7a1.59,1.59,0,0,1,.78-.22,1.57,1.57,0,0,1,1.49,1,5.73,5.73,0,0,1,.48,2.53,15.54,15.54,0,0,1-.4,3.3c1.83-.73,3.7-1.48,5.62-2.23s3.78-1.47,5.58-2.15,3.5-1.32,5.09-1.91,3-1.09,4.21-1.52a.4.4,0,0,1,.17,0,.49.49,0,0,1,.25.06.17.17,0,0,1,.1.15ZM113.5,26.34l0,0a4.41,4.41,0,0,0,1.2,1.29,2.64,2.64,0,0,0,1.52.46,2.67,2.67,0,0,0,1.24-.34,5,5,0,0,0,1.39-1.16l.29.23a4.1,4.1,0,0,1-2.89,1.59,3.35,3.35,0,0,1-1.69-.43,4.53,4.53,0,0,1-1.09-.88Zm0-6.51A16.2,16.2,0,0,1,112,22a16.45,16.45,0,0,0,.61,2.42,9.2,9.2,0,0,0,.86,1.89v.8l-.27-.34a8,8,0,0,1-1-1.83,15.07,15.07,0,0,1-.72-2.27c-.27.29-.55.56-.82.82a7.49,7.49,0,0,1-.89.71l-.17-.17a8.11,8.11,0,0,0,.93-.83c.28-.3.56-.61.83-.94a21.13,21.13,0,0,1-.4-2.7q-.12-1.41-.12-2.85V16L108,17.23l-2.78,1.22-.11,0q-.18,0-.18-.15c0-.06,0-.11.12-.17.81-.39,1.7-.79,2.67-1.22l3.11-1.33a27.52,27.52,0,0,1,.32-3.37,16.63,16.63,0,0,1,.69-2.82,6.13,6.13,0,0,1,1.05-1.93A2.23,2.23,0,0,1,113.5,7v.46a1.74,1.74,0,0,0-.46.5,6.23,6.23,0,0,0-.75,1.76,18.36,18.36,0,0,0-.51,2.56q-.18,1.44-.24,3.06l1.75-.7.21-.09v.4l-2,.8v.69c0,.87,0,1.74.08,2.6s.16,1.71.29,2.52a16,16,0,0,0,1.59-2.77Z"></path><path class="cls-3" d="M132.65,26.86a4,4,0,0,1-3,1.65,2.68,2.68,0,0,1-2-.91A5.74,5.74,0,0,1,126.4,25a6.87,6.87,0,0,0-1.17-2.69,2,2,0,0,0-1.52-.84,2.39,2.39,0,0,0-1.56.71v-.37l.13-.12a2.78,2.78,0,0,1,1.78-.82,2.23,2.23,0,0,1,1.75,1.05,8.88,8.88,0,0,1,1.31,3.26,5.36,5.36,0,0,0,1,2.25,2.07,2.07,0,0,0,1.61.78,3.72,3.72,0,0,0,2.6-1.53l.29.23ZM122.15,6.25h.14a1.82,1.82,0,0,1,1.74,1,5.58,5.58,0,0,1,.52,2.59,14.62,14.62,0,0,1-.3,2.8,23.33,23.33,0,0,1-.86,3.11,26.42,26.42,0,0,1-1.24,3V18a26.3,26.3,0,0,0,.91-2.57,23.57,23.57,0,0,0,.68-2.9,15.35,15.35,0,0,0,.23-2.37,5.67,5.67,0,0,0-.43-2.45,1.4,1.4,0,0,0-1.33-.88h-.06Zm0,15.88-.14.13a7.89,7.89,0,0,0-1.57,2.32c0,.19,0,.46,0,.82s0,.73,0,1.11V27.9c0,.23-.09.35-.29.35a.21.21,0,0,1-.2-.14c0-.66,0-1.24,0-1.75s0-1,0-1.44,0-.87,0-1.28,0-.86,0-1.32a9.17,9.17,0,0,1-2,1.91s-.07.06-.09.06-.06,0-.06-.09a.35.35,0,0,1,.12-.26,9.41,9.41,0,0,0,2-2c0-1.79-.07-3.54-.1-5.26s0-3.5,0-5.35a10.41,10.41,0,0,1,.13-1.55,9.07,9.07,0,0,1,.42-1.67,4.06,4.06,0,0,1,.78-1.35,1.53,1.53,0,0,1,1.07-.54v.6a1.13,1.13,0,0,0-.94.59,5.11,5.11,0,0,0-.56,1.35,7.84,7.84,0,0,0-.26,1.47q-.06.72-.06,1c0,.84,0,1.67,0,2.47l0,2.41c0,.81,0,1.64,0,2.48s0,1.72,0,2.64A18.06,18.06,0,0,0,122,18.49c.07-.16.13-.32.2-.47v.7l-.06.12a20.93,20.93,0,0,1-1.65,2.79v2.43a9.6,9.6,0,0,1,1.71-2.3Z"></path><path class="cls-3" d="M142.62,26.86a5.42,5.42,0,0,1-2.4,1.59,8.61,8.61,0,0,1-2.92.52,6.71,6.71,0,0,1-1.37-.13,3.83,3.83,0,0,1-1.14-.39,2.19,2.19,0,0,1-.78-.65,1.44,1.44,0,0,1-.29-.91,2.6,2.6,0,0,1,.84-1.76q0-.09-.18-.09a6,6,0,0,1-.81.29,3.22,3.22,0,0,1-.95.14,1.65,1.65,0,0,1-.85-.21.85.85,0,0,1-.37-.8,3.52,3.52,0,0,1,.5-1.56,9,9,0,0,1,1.28-1.82A11.48,11.48,0,0,1,135,19.44a6.57,6.57,0,0,1,2.1-1,.47.47,0,0,1,.17,0c.1,0,.15.09.15.17a.31.31,0,0,1-.09.17.52.52,0,0,1-.23.18,6.86,6.86,0,0,0-1.94,1,8.68,8.68,0,0,0-1.54,1.4,7.26,7.26,0,0,0-1,1.54,3.12,3.12,0,0,0-.38,1.31.94.94,0,0,0,.22.64.86.86,0,0,0,.65.23,3.42,3.42,0,0,0,1.26-.26,2.88,2.88,0,0,0,1-.58.27.27,0,0,1,.2-.09c.1,0,.14,0,.14.12a.31.31,0,0,1-.11.23,3.6,3.6,0,0,0-.8,1,2.25,2.25,0,0,0-.24,1,2,2,0,0,0,.85,1.63,3.38,3.38,0,0,0,2.16.68,7.34,7.34,0,0,0,2.63-.53,5.23,5.23,0,0,0,2.19-1.58Z"></path><path class="cls-3" d="M179.29.4c0,.12-.12.24-.37.38l-1.31.49-2.25.85-3,1.14L168.9,4.62l-3.78,1.51c-1.29.52-2.56,1-3.82,1.59l-3,1.3v-.5l.71-.31q4.64-2.06,9.68-4.12C172,2.71,175.44,1.4,178.92.17a.26.26,0,0,1,.14,0,.2.2,0,0,1,.2.12.29.29,0,0,1,0,.14ZM158.27,29V10.15c.23,0,.35.17.35.49s0,1.07,0,2,0,2-.06,3.2-.05,2.48-.07,3.82-.06,2.63-.09,3.87-.05,2.37-.07,3.37S158.27,28.48,158.27,29Zm0-19.95c-.88.39-1.75.77-2.59,1.16-1.78.81-3.36,1.53-4.74,2.18L147.57,14l-1.48.73c-.19.13-.29.25-.29.34a.12.12,0,0,0,.11.13.11.11,0,0,1,.1.11c0,.11-.17.24-.49.37a4.3,4.3,0,0,1-.67.23l-.81.23-.75.21-.49.11c-.22,0-.32-.07-.32-.23a.45.45,0,0,1,.1-.26.91.91,0,0,1,.33-.26c2.16-1,4.61-2.2,7.33-3.48q3.78-1.78,8-3.67V9Zm0,1.13h0a.26.26,0,0,0-.25.14.79.79,0,0,0-.07.23V29.15c0,.25.07.37.2.37s.15-.12.15-.37v-19Z"></path><path class="cls-3" d="M173.36,24a9.16,9.16,0,0,1-1.63,1.1,6,6,0,0,1-1.55.55,3.21,3.21,0,0,1-1.2,2.24,3.55,3.55,0,0,1-1.4.67v-.35a2.66,2.66,0,0,0,1.27-.6,2.78,2.78,0,0,0,.93-1.93,1.19,1.19,0,0,1-.25,0h-.24a4.21,4.21,0,0,1-1.71-.34v-.47l.32.15a4.14,4.14,0,0,0,1.62.32h.29v-.12a4.89,4.89,0,0,0-.38-2,5.14,5.14,0,0,0-.91-1.44,3.75,3.75,0,0,0-.94-.78v-.59h0a4.07,4.07,0,0,1,1.26,1,5.43,5.43,0,0,1,1,1.57,5.37,5.37,0,0,1,.39,2.11v.2a5.77,5.77,0,0,0,1.45-.45,5.9,5.9,0,0,0,1.47-1Zm-5.78,4.56a3.59,3.59,0,0,1-.81.09,3.81,3.81,0,0,1-1.39-.27,3.44,3.44,0,0,1-1.2-.81V26.21l.07.16a4.14,4.14,0,0,0,.34-1.17,10.22,10.22,0,0,0,.1-1.35,6.53,6.53,0,0,0-.12-1.34c-.07-.38-.16-.56-.26-.56a.3.3,0,0,0-.13,0v-.44l.22,0c.23,0,.41.21.53.62a4.92,4.92,0,0,1,.19,1.46,8.12,8.12,0,0,1-.17,1.59,4.52,4.52,0,0,1-.55,1.45,3.76,3.76,0,0,0,1,1.16,2.76,2.76,0,0,0,1.64.46,2.63,2.63,0,0,0,.49,0v.35Zm0-3.2v-.47a4.38,4.38,0,0,1-1-.7,4.17,4.17,0,0,1-.89-1.26,3.44,3.44,0,0,1-.34-1.51.75.75,0,0,1,.25-.6,1,1,0,0,1,.65-.2,2.57,2.57,0,0,1,1.11.3,1.55,1.55,0,0,1,.22.12v-.59a2.84,2.84,0,0,0-1.24-.33,1.4,1.4,0,0,0-1,.34,1.34,1.34,0,0,0-.39,1.08,4,4,0,0,0,.31,1.56,4.3,4.3,0,0,0,2.28,2.26Zm-3.4,2.21,0,0a4.31,4.31,0,0,1-.86-1.4,5.27,5.27,0,0,1-.34-2,4.39,4.39,0,0,1,.36-1.85,1.22,1.22,0,0,1,.87-.76V22c-.15.05-.26.21-.35.47a4.28,4.28,0,0,0-.15,1.24,7,7,0,0,0,.13,1.33,5.2,5.2,0,0,0,.37,1.2Z"></path><path class="cls-3" d="M188.6,24a8,8,0,0,1-2,1.24,5.47,5.47,0,0,1-1.83.46,4.23,4.23,0,0,1-1.4,2.33l-.09.07v-.59a3.61,3.61,0,0,0,1.21-1.81,2.73,2.73,0,0,1-1.21-.25V24.9h0a2.1,2.1,0,0,0,1.27.45q.09-.34.15-.72a5.34,5.34,0,0,0,.05-.81,8,8,0,0,0-.17-1.7,7.06,7.06,0,0,0-.46-1.47,3.27,3.27,0,0,0-.7-1,1.07,1.07,0,0,0-.16-.14V19a1.15,1.15,0,0,1,.29.2,3.34,3.34,0,0,1,.81,1.05,5.82,5.82,0,0,1,.51,1.51,8.6,8.6,0,0,1,.17,1.78,7.09,7.09,0,0,1-.2,1.82,5.24,5.24,0,0,0,1.72-.38,5.84,5.84,0,0,0,1.75-1.13Zm-5.28,4.1a3.18,3.18,0,0,1-1.95.7,3,3,0,0,1-1.46-.39,3.2,3.2,0,0,1-.88-.73v-.79a3,3,0,0,0,1.1,1,2.78,2.78,0,0,0,1.3.32,3.14,3.14,0,0,0,1.81-.62l.08-.06v.59ZM179,22v.44a.63.63,0,0,1,.57.37,2.22,2.22,0,0,1,.18,1,4.53,4.53,0,0,1-.26,1.63,3.87,3.87,0,0,1-.49.95v.57a4.5,4.5,0,0,0,.77-1.46,6.47,6.47,0,0,0,.27-1.95,2,2,0,0,0-.26-1.17.71.71,0,0,0-.58-.36l-.2,0Zm4.29,3.48-.27-.16a3.69,3.69,0,0,1-1-1.07,4.8,4.8,0,0,1-.59-1.44,6.28,6.28,0,0,1-.19-1.53,4.14,4.14,0,0,1,.32-1.73,1,1,0,0,1,.95-.73,1.53,1.53,0,0,1,.79.21v.48a1.11,1.11,0,0,0-.7-.25c-.25,0-.45.18-.58.55a3.73,3.73,0,0,0-.2,1.33,7,7,0,0,0,.15,1.4,5.14,5.14,0,0,0,.5,1.36,3.22,3.22,0,0,0,.83,1ZM179,27.68a5,5,0,0,1-.32-.44,3.14,3.14,0,0,1-1.07.73,2.92,2.92,0,0,1-2.41,0,3.13,3.13,0,0,1-1.06-.84,4.27,4.27,0,0,1-.73-1.41,6.16,6.16,0,0,1-.28-2,1.75,1.75,0,0,1,0-.35,1.19,1.19,0,0,0,0-.17.05.05,0,0,0-.06-.06,2.11,2.11,0,0,0-.46.35.55.55,0,0,1-.38.17c-.11,0-.17,0-.17-.11s.06-.12.17-.24a2.29,2.29,0,0,0,.78-.91c.1-.26.17-.44.21-.56s.11-.26.17-.26a.35.35,0,0,1,.17,0,.19.19,0,0,1,.09.19v0a7.52,7.52,0,0,0-.12.87q0,.4,0,.78a6,6,0,0,0,.26,1.85,4.31,4.31,0,0,0,.68,1.3,2.71,2.71,0,0,0,1,.77,2.83,2.83,0,0,0,1.13.24,2.74,2.74,0,0,0,1.88-.75,6,6,0,0,1-.58-2.83,2.58,2.58,0,0,1,.42-1.54A1.39,1.39,0,0,1,179,22v.44h0c-.23,0-.41.15-.53.46a3.09,3.09,0,0,0-.19,1.19,5.15,5.15,0,0,0,.55,2.51,2.43,2.43,0,0,0,.2-.25v1.36Z"></path><path class="cls-3" d="M200.57,26.86a4.08,4.08,0,0,1-2.89,1.59,3.8,3.8,0,0,1-3.06-1.34,7.1,7.1,0,0,1-1.28-4.21q-.1,0-.24.39c-.09.26-.19.52-.3.77s-.33.73-.57,1.23-.5,1-.78,1.43a8.38,8.38,0,0,1-.85,1.18,1.16,1.16,0,0,1-.81.49.37.37,0,0,1-.38-.27,2.6,2.6,0,0,1-.11-.51c-.14-1.75-.25-3.17-.35-4.25s-.15-1.71-.17-1.91c0-.36.1-.55.31-.55a.57.57,0,0,1,.28.08c.09,0,.14.15.16.3v.94c0,.55,0,1.15,0,1.81s0,1.27,0,1.86,0,1,0,1.12c.1.59.24.89.41.89s.33-.19.58-.56.52-.83.81-1.37.57-1.1.84-1.67.48-1,.63-1.4c.25-.62.49-.93.73-.93a.35.35,0,0,1,.28.22,1.23,1.23,0,0,1,.09.51,8.65,8.65,0,0,0,.23,1.95,6.64,6.64,0,0,0,.68,1.75A3.85,3.85,0,0,0,196,27.66a2.88,2.88,0,0,0,1.62.47,2.74,2.74,0,0,0,1.25-.34,5.29,5.29,0,0,0,1.39-1.16Z"></path><path class="cls-4" d="M62.32,26.86a4.1,4.1,0,0,1-2.89,1.59,3,3,0,0,1-2.13-.95A7.84,7.84,0,0,1,55.67,25a5,5,0,0,1-.62,1.88,4,4,0,0,1-1,1.13,3.33,3.33,0,0,1-1.14.55,4.46,4.46,0,0,1-1.09.14,2.88,2.88,0,0,1-1.5-.37,3.37,3.37,0,0,1-1.06-1A4.06,4.06,0,0,1,48.64,26a5.88,5.88,0,0,1,0-3,4.27,4.27,0,0,1,.61-1.31,3.09,3.09,0,0,1,1-.93,2.79,2.79,0,0,1,1.39-.35,1.93,1.93,0,0,1,.88.21,3,3,0,0,1,1.29,1.15,1.39,1.39,0,0,1,.2.67s-.05.08-.14.08a.42.42,0,0,1-.29-.08,4.59,4.59,0,0,0-.25-.49,3.09,3.09,0,0,0-.4-.57,2.18,2.18,0,0,0-.61-.46,1.84,1.84,0,0,0-.88-.19,2,2,0,0,0-1,.26,2.13,2.13,0,0,0-.7.7,3,3,0,0,0-.41,1,5.06,5.06,0,0,0-.13,1.17,6.62,6.62,0,0,0,.19,1.58,4.84,4.84,0,0,0,.56,1.42,3.71,3.71,0,0,0,.9,1,1.85,1.85,0,0,0,1.16.41A3.08,3.08,0,0,0,53.31,28a3,3,0,0,0,1.09-.79,4,4,0,0,0,.73-1.27,4.79,4.79,0,0,0,.28-1.71,3.38,3.38,0,0,1-.22-.58A7,7,0,0,1,55,22.9q-.08-.41-.12-.81a6.24,6.24,0,0,1,0-.69c0-.31.06-.47.17-.47a.35.35,0,0,1,.26.13,1,1,0,0,1,.2.34,1.88,1.88,0,0,1,.14.42c0,.14,0,.26.07.36a4.17,4.17,0,0,1,.06.45c0,.2,0,.4.05.62s0,.49.06.78a10.11,10.11,0,0,0,.49,1.43,6.42,6.42,0,0,0,.77,1.33,4.11,4.11,0,0,0,1,1,2.22,2.22,0,0,0,1.24.37,2.7,2.7,0,0,0,1.24-.34A5,5,0,0,0,62,26.63Z"></path><path class="cls-4" d="M70.45,26.86a4.12,4.12,0,0,1-2.9,1.59A3.22,3.22,0,0,1,65.91,28a4.26,4.26,0,0,1-1.33-1.22,8.51,8.51,0,0,1-1-1.85,16,16,0,0,1-.77-2.31,8.93,8.93,0,0,1-1.73,1.59l-.18-.17a8.2,8.2,0,0,0,.94-.84c.3-.31.6-.64.89-1a24.57,24.57,0,0,1-.48-3.05A30.56,30.56,0,0,1,62.06,16a32.16,32.16,0,0,1,.23-3.86A19.37,19.37,0,0,1,63,8.83,7.83,7.83,0,0,1,64,6.53a1.75,1.75,0,0,1,1.43-.86,1.9,1.9,0,0,1,1.81,1.07,5.93,5.93,0,0,1,.56,2.8,15.16,15.16,0,0,1-.33,3,24.86,24.86,0,0,1-.92,3.31,26.26,26.26,0,0,1-1.42,3.27A18.06,18.06,0,0,1,63.3,22,18.86,18.86,0,0,0,64,24.42a10,10,0,0,0,.91,1.94,4.7,4.7,0,0,0,1.19,1.3,2.5,2.5,0,0,0,1.47.47,2.74,2.74,0,0,0,1.25-.34,5.29,5.29,0,0,0,1.39-1.16l.29.23Zm-3.36-17a6.37,6.37,0,0,0-.46-2.65,1.54,1.54,0,0,0-1.48-1c-.36,0-.7.26-1,.78a8,8,0,0,0-.76,2.08,23.63,23.63,0,0,0-.47,3,33.73,33.73,0,0,0-.18,3.55c0,1,0,2,.12,3s.19,2,.35,2.92a18.52,18.52,0,0,0,1.63-2.82,25.86,25.86,0,0,0,1.21-3.08,21.42,21.42,0,0,0,.77-3.06A16.68,16.68,0,0,0,67.09,9.83Z"></path><path class="cls-4" d="M82.07,32.47c0,.08-.06.12-.17.12a.41.41,0,0,1-.32-.18,13.73,13.73,0,0,0-2.37-3,18.92,18.92,0,0,0-2.75-2.17,17.06,17.06,0,0,0-2.62-1.37,12.74,12.74,0,0,0-2-.66c0,.46,0,.94,0,1.43v1.54a.29.29,0,0,1-.08.22.27.27,0,0,1-.18.07.18.18,0,0,1-.2-.14c0-.54,0-1.08,0-1.61s0-1.05,0-1.57l-.29.13-.29.13a.34.34,0,0,1-.17,0c-.12,0-.17,0-.17-.09s.07-.17.23-.23l.69-.35c0-.42,0-.85,0-1.27s0-.85,0-1.27a10.35,10.35,0,0,1-2.11,2.05L69,24.06A11.25,11.25,0,0,0,70.2,23a13,13,0,0,0,1.08-1.33c0-1.74-.08-3.44-.14-5.11s-.09-3.38-.09-5.16a14.16,14.16,0,0,1,.12-1.65,10.46,10.46,0,0,1,.4-1.88,5.5,5.5,0,0,1,.78-1.53,1.5,1.5,0,0,1,1.22-.63,1.9,1.9,0,0,1,1.81,1.07,6.06,6.06,0,0,1,.56,2.8,15.83,15.83,0,0,1-.29,2.85,21.67,21.67,0,0,1-.84,3.15,25.24,25.24,0,0,1-1.31,3.15,20.83,20.83,0,0,1-1.7,2.85v.64c0,.19,0,.4,0,.62s0,.46,0,.72v.94A12.16,12.16,0,0,0,74,23a12.4,12.4,0,0,0,1.4-1.46,9.07,9.07,0,0,0,.87-1.27c.21-.39.37-.69.49-.93s.15-.17.23-.17a.32.32,0,0,1,.2.09.24.24,0,0,1,.12.2,2.59,2.59,0,0,1-.48,1.24,8.56,8.56,0,0,1-1.18,1.43,13.39,13.39,0,0,1-1.72,1.45,19.78,19.78,0,0,1-2.06,1.29v.06a13,13,0,0,1,3.33,1.17,18.35,18.35,0,0,1,3,1.88,16.4,16.4,0,0,1,2.37,2.24A11.7,11.7,0,0,1,82,32.41l0,.06ZM75.22,9.83a6.35,6.35,0,0,0-.47-2.65,1.53,1.53,0,0,0-1.47-1,1,1,0,0,0-.91.69,6,6,0,0,0-.49,1.58,12.93,12.93,0,0,0-.21,1.7c0,.55,0,.91,0,1.09,0,.81,0,1.6,0,2.37s0,1.54,0,2.33,0,1.57,0,2.38,0,1.66,0,2.55a20.07,20.07,0,0,0,1.44-2.72,26.94,26.94,0,0,0,1.09-2.89A24.44,24.44,0,0,0,75,12.42,16.54,16.54,0,0,0,75.22,9.83Z"></path><path class="cls-4" d="M95.57,24a8.82,8.82,0,0,1-1.63,1.1,6,6,0,0,1-1.55.55,3.21,3.21,0,0,1-1.2,2.24,3.53,3.53,0,0,1-2.21.76,3.85,3.85,0,0,1-1.39-.27,3.38,3.38,0,0,1-1.23-.84,4.31,4.31,0,0,1-.86-1.4,5.47,5.47,0,0,1-.34-2,4.24,4.24,0,0,1,.37-1.85,1.15,1.15,0,0,1,1.08-.78c.23,0,.41.21.54.62a5.3,5.3,0,0,1,.18,1.46,7.42,7.42,0,0,1-.17,1.59,4.52,4.52,0,0,1-.55,1.45,3.67,3.67,0,0,0,1.06,1.16,2.91,2.91,0,0,0,3.39-.18A2.78,2.78,0,0,0,92,25.68a1.19,1.19,0,0,1-.25,0H91.5a4.26,4.26,0,0,1-1.72-.34,4.42,4.42,0,0,1-1.38-.93,4.14,4.14,0,0,1-.89-1.33,3.82,3.82,0,0,1-.32-1.56,1.34,1.34,0,0,1,.39-1.08,1.4,1.4,0,0,1,1-.34,2.84,2.84,0,0,1,1.26.34,4.15,4.15,0,0,1,1.25,1A5.43,5.43,0,0,1,92,23a5.37,5.37,0,0,1,.39,2.11v.2a5.77,5.77,0,0,0,1.45-.45,5.9,5.9,0,0,0,1.47-1l.23.15ZM92,25.24a4.89,4.89,0,0,0-.38-2,5.14,5.14,0,0,0-.91-1.44,3.72,3.72,0,0,0-1.16-.9,2.57,2.57,0,0,0-1.11-.3,1,1,0,0,0-.65.2.75.75,0,0,0-.25.6,3.58,3.58,0,0,0,.34,1.51,4.17,4.17,0,0,0,.89,1.26,4.53,4.53,0,0,0,1.32.85,4.14,4.14,0,0,0,1.62.32H92v-.12ZM86.9,23.85a6.53,6.53,0,0,0-.12-1.34c-.07-.38-.16-.56-.26-.56s-.37.16-.47.49a3.93,3.93,0,0,0-.16,1.24A7,7,0,0,0,86,25a4.94,4.94,0,0,0,.45,1.36,4.5,4.5,0,0,0,.33-1.17A8.76,8.76,0,0,0,86.9,23.85Z"></path><path class="cls-4" d="M105,25.39a.31.31,0,0,1-.1.24.45.45,0,0,1-.33.1q-1.56.46-3.18,1c-1.08.36-2.17.77-3.27,1.21q0,1.8.06,3.15c0,.91,0,1.74.06,2.5s0,1.47,0,2.13,0,1.31,0,2c0,.23-.07.34-.23.34s-.1,0-.14-.14c0-1.14,0-2.56-.09-4.27s-.1-3.54-.17-5.51a69.79,69.79,0,0,0-6.77,3.17A45.24,45.24,0,0,0,85,35.05a.76.76,0,0,1-.43.17A.23.23,0,0,1,84.3,35a.4.4,0,0,1,.14-.26c1-.64,2-1.28,3.11-1.94s2.24-1.29,3.38-1.89,2.29-1.19,3.43-1.75,2.23-1.07,3.27-1.54c0-.92-.07-1.83-.1-2.73s-.07-1.81-.1-2.73a11.32,11.32,0,0,1-2.17,2.11l-.18-.17a12.34,12.34,0,0,0,2.32-2.49c0-1.31-.08-2.5-.1-3.56s-.06-2-.09-2.9,0-1.67-.07-2.37,0-1.36,0-2a10.18,10.18,0,0,1,.13-1.54,7.66,7.66,0,0,1,.42-1.68,4.06,4.06,0,0,1,.78-1.35,1.57,1.57,0,0,1,1.21-.54,1.9,1.9,0,0,1,1.81,1.07,5.93,5.93,0,0,1,.56,2.8,14.69,14.69,0,0,1-.29,2.83,22.27,22.27,0,0,1-.82,3.13,24.78,24.78,0,0,1-1.3,3.12,21.59,21.59,0,0,1-1.69,2.83c0,.49,0,.92,0,1.32s0,.81,0,1.24,0,.92,0,1.45,0,1.17,0,1.92c1.56-.69,2.93-1.25,4.11-1.66a8.68,8.68,0,0,1,2.43-.62c.25,0,.37.09.37.29ZM101.3,9.83a6.37,6.37,0,0,0-.46-2.65,1.54,1.54,0,0,0-1.48-1,1.07,1.07,0,0,0-1,.6,5.23,5.23,0,0,0-.49,1.38,9.93,9.93,0,0,0-.19,1.5c0,.49,0,.82,0,1,0,1.1,0,2.53,0,4.31s.1,3.71.18,5.81a23.61,23.61,0,0,0,1.41-2.69,22.23,22.23,0,0,0,1.07-2.88,22.49,22.49,0,0,0,.67-2.85A16,16,0,0,0,101.3,9.83Z"></path><path class="cls-4" d="M136.87,5.93a.17.17,0,0,1-.09.14Q132,7.75,126.63,9.76T115.76,14a23.82,23.82,0,0,1-1.45,4.23A17.49,17.49,0,0,1,112,22a16.45,16.45,0,0,0,.61,2.42,9.34,9.34,0,0,0,.89,1.93,4.41,4.41,0,0,0,1.2,1.29,2.64,2.64,0,0,0,1.52.46,2.67,2.67,0,0,0,1.24-.34,5,5,0,0,0,1.39-1.16l.29.23a4.1,4.1,0,0,1-2.89,1.59,3.35,3.35,0,0,1-1.69-.43,4.47,4.47,0,0,1-1.36-1.22,8,8,0,0,1-1-1.83,15.07,15.07,0,0,1-.72-2.27c-.27.29-.55.56-.82.82a7.49,7.49,0,0,1-.89.71l-.17-.17a8.11,8.11,0,0,0,.93-.83c.28-.3.56-.61.83-.94a21.13,21.13,0,0,1-.4-2.7q-.12-1.41-.12-2.85V16L108,17.23l-2.78,1.22-.11,0q-.18,0-.18-.15c0-.06,0-.11.12-.17.81-.39,1.7-.79,2.67-1.22l3.11-1.33a27.52,27.52,0,0,1,.32-3.37,16.63,16.63,0,0,1,.69-2.82,6.13,6.13,0,0,1,1.05-1.93,1.72,1.72,0,0,1,1.35-.73,1.57,1.57,0,0,1,1.49,1,5.73,5.73,0,0,1,.48,2.53,15.54,15.54,0,0,1-.4,3.3c1.83-.73,3.7-1.48,5.62-2.23s3.78-1.47,5.58-2.15,3.5-1.32,5.09-1.91,3-1.09,4.21-1.52a.4.4,0,0,1,.17,0,.49.49,0,0,1,.25.06.17.17,0,0,1,.1.15Zm-21.4,4.62a6.49,6.49,0,0,0-.36-2.37A1.09,1.09,0,0,0,113,7.94a6.23,6.23,0,0,0-.75,1.76,18.36,18.36,0,0,0-.51,2.56q-.18,1.44-.24,3.06l1.75-.7c.58-.25,1.19-.49,1.8-.74a13.56,13.56,0,0,0,.29-1.75,14.63,14.63,0,0,0,.09-1.58Zm-3.93,5.18v.69c0,.87,0,1.74.08,2.6s.16,1.71.29,2.52a17.57,17.57,0,0,0,1.91-3.5A22.94,22.94,0,0,0,115,14.31Z"></path><path class="cls-4" d="M132.65,26.86a4,4,0,0,1-3,1.65,2.68,2.68,0,0,1-2-.91A5.74,5.74,0,0,1,126.4,25a6.87,6.87,0,0,0-1.17-2.69,2,2,0,0,0-1.52-.84,2.48,2.48,0,0,0-1.7.84,7.89,7.89,0,0,0-1.57,2.32c0,.19,0,.46,0,.82s0,.73,0,1.11V27.9c0,.23-.09.35-.29.35a.21.21,0,0,1-.2-.14c0-.66,0-1.24,0-1.75s0-1,0-1.44,0-.87,0-1.28,0-.86,0-1.32a9.17,9.17,0,0,1-2,1.91s-.07.06-.09.06-.06,0-.06-.09a.35.35,0,0,1,.12-.26,9.41,9.41,0,0,0,2-2c0-1.79-.07-3.54-.1-5.26s0-3.5,0-5.35a10.41,10.41,0,0,1,.13-1.55,9.07,9.07,0,0,1,.42-1.67,4.06,4.06,0,0,1,.78-1.35,1.58,1.58,0,0,1,1.21-.55,1.82,1.82,0,0,1,1.74,1,5.58,5.58,0,0,1,.52,2.59,14.62,14.62,0,0,1-.3,2.8,23.33,23.33,0,0,1-.86,3.11,26.08,26.08,0,0,1-1.3,3.1,20.93,20.93,0,0,1-1.65,2.79v2.43a9.24,9.24,0,0,1,1.84-2.42,2.78,2.78,0,0,1,1.78-.82,2.23,2.23,0,0,1,1.75,1.05,8.88,8.88,0,0,1,1.31,3.26,5.36,5.36,0,0,0,1,2.25,2.07,2.07,0,0,0,1.61.78,3.72,3.72,0,0,0,2.6-1.53l.29.23ZM124,10.18a5.67,5.67,0,0,0-.43-2.45,1.4,1.4,0,0,0-1.33-.88,1.12,1.12,0,0,0-1,.59,5.11,5.11,0,0,0-.56,1.35,7.84,7.84,0,0,0-.26,1.47q-.06.72-.06,1c0,.84,0,1.67,0,2.47l0,2.41c0,.81,0,1.64,0,2.48s0,1.72,0,2.64A18.06,18.06,0,0,0,122,18.49a25.9,25.9,0,0,0,1.11-3,23.57,23.57,0,0,0,.68-2.9A15.35,15.35,0,0,0,124,10.18Z"></path><path class="cls-4" d="M142.62,26.86a5.42,5.42,0,0,1-2.4,1.59,8.61,8.61,0,0,1-2.92.52,6.71,6.71,0,0,1-1.37-.13,3.83,3.83,0,0,1-1.14-.39,2.19,2.19,0,0,1-.78-.65,1.44,1.44,0,0,1-.29-.91,2.6,2.6,0,0,1,.84-1.76q0-.09-.18-.09a6,6,0,0,1-.81.29,3.22,3.22,0,0,1-.95.14,1.65,1.65,0,0,1-.85-.21.85.85,0,0,1-.37-.8,3.52,3.52,0,0,1,.5-1.56,9,9,0,0,1,1.28-1.82A11.48,11.48,0,0,1,135,19.44a6.57,6.57,0,0,1,2.1-1,.47.47,0,0,1,.17,0c.1,0,.15.09.15.17a.31.31,0,0,1-.09.17.52.52,0,0,1-.23.18,6.86,6.86,0,0,0-1.94,1,8.68,8.68,0,0,0-1.54,1.4,7.26,7.26,0,0,0-1,1.54,3.12,3.12,0,0,0-.38,1.31.94.94,0,0,0,.22.64.86.86,0,0,0,.65.23,3.42,3.42,0,0,0,1.26-.26,2.88,2.88,0,0,0,1-.58.27.27,0,0,1,.2-.09c.1,0,.14,0,.14.12a.31.31,0,0,1-.11.23,3.6,3.6,0,0,0-.8,1,2.25,2.25,0,0,0-.24,1,2,2,0,0,0,.85,1.63,3.38,3.38,0,0,0,2.16.68,7.34,7.34,0,0,0,2.63-.53,5.23,5.23,0,0,0,2.19-1.58Z"></path><path class="cls-4" d="M179.29.4c0,.12-.12.24-.37.38l-1.31.49-2.25.85-3,1.14L168.9,4.62l-3.78,1.51c-1.29.52-2.56,1-3.82,1.59-2,.83-3.84,1.65-5.62,2.46s-3.36,1.53-4.74,2.18L147.57,14l-1.48.73c-.19.13-.29.25-.29.34a.12.12,0,0,0,.11.13.11.11,0,0,1,.1.11c0,.11-.17.24-.49.37a4.3,4.3,0,0,1-.67.23l-.81.23-.75.21-.49.11c-.22,0-.32-.07-.32-.23a.45.45,0,0,1,.1-.26.91.91,0,0,1,.33-.26c2.16-1,4.61-2.2,7.33-3.48s5.64-2.61,8.74-4,6.32-2.74,9.68-4.12S175.44,1.4,178.92.17a.26.26,0,0,1,.14,0,.2.2,0,0,1,.2.12.29.29,0,0,1,0,.14ZM158.62,10.64c0,.4,0,1.07,0,2s0,2-.06,3.2-.05,2.48-.07,3.82-.06,2.63-.09,3.87-.05,2.37-.07,3.37,0,1.75,0,2.26c0,.25-.05.37-.15.37s-.2-.12-.2-.37V10.52a.79.79,0,0,1,.07-.23.26.26,0,0,1,.25-.14C158.49,10.15,158.62,10.31,158.62,10.64Z"></path><path class="cls-4" d="M173.36,24a9.16,9.16,0,0,1-1.63,1.1,6,6,0,0,1-1.55.55,3.21,3.21,0,0,1-1.2,2.24,3.53,3.53,0,0,1-2.21.76,3.81,3.81,0,0,1-1.39-.27,3.38,3.38,0,0,1-1.23-.84,4.31,4.31,0,0,1-.86-1.4,5.27,5.27,0,0,1-.34-2,4.39,4.39,0,0,1,.36-1.85,1.18,1.18,0,0,1,1.09-.78c.23,0,.41.21.53.62a4.92,4.92,0,0,1,.19,1.46,8.12,8.12,0,0,1-.17,1.59,4.52,4.52,0,0,1-.55,1.45,3.76,3.76,0,0,0,1,1.16,2.76,2.76,0,0,0,1.64.46,2.69,2.69,0,0,0,1.76-.64,2.78,2.78,0,0,0,.93-1.93,1.19,1.19,0,0,1-.25,0h-.24a4.26,4.26,0,0,1-1.72-.34,4.3,4.3,0,0,1-2.28-2.26,4,4,0,0,1-.31-1.56,1.34,1.34,0,0,1,.39-1.08,1.4,1.4,0,0,1,1-.34,2.77,2.77,0,0,1,1.25.34,4.07,4.07,0,0,1,1.26,1,5.43,5.43,0,0,1,1,1.57,5.37,5.37,0,0,1,.39,2.11v.2a5.77,5.77,0,0,0,1.45-.45,5.9,5.9,0,0,0,1.47-1l.23.15Zm-3.55,1.24a4.89,4.89,0,0,0-.38-2,5.14,5.14,0,0,0-.91-1.44,3.72,3.72,0,0,0-1.16-.9,2.57,2.57,0,0,0-1.11-.3,1,1,0,0,0-.65.2.75.75,0,0,0-.25.6,3.44,3.44,0,0,0,.34,1.51,4.17,4.17,0,0,0,.89,1.26,4.53,4.53,0,0,0,1.32.85,4.14,4.14,0,0,0,1.62.32h.29v-.12Zm-5.12-1.39a6.53,6.53,0,0,0-.12-1.34c-.07-.38-.16-.56-.26-.56s-.37.16-.48.49a4.28,4.28,0,0,0-.15,1.24,7,7,0,0,0,.13,1.33,5.27,5.27,0,0,0,.44,1.36,4.14,4.14,0,0,0,.34-1.17A10.22,10.22,0,0,0,164.69,23.85Z"></path><path class="cls-4" d="M188.6,24a8,8,0,0,1-2,1.24,5.47,5.47,0,0,1-1.83.46,4.23,4.23,0,0,1-1.4,2.33,3.23,3.23,0,0,1-2,.77,3,3,0,0,1-1.46-.39,3.35,3.35,0,0,1-1.2-1.17,3.14,3.14,0,0,1-1.07.73,2.92,2.92,0,0,1-2.41,0,3.13,3.13,0,0,1-1.06-.84,4.27,4.27,0,0,1-.73-1.41,6.16,6.16,0,0,1-.28-2,1.75,1.75,0,0,1,0-.35,1.19,1.19,0,0,0,0-.17.05.05,0,0,0-.06-.06,2.11,2.11,0,0,0-.46.35.55.55,0,0,1-.38.17c-.11,0-.17,0-.17-.11s.06-.12.17-.24a2.29,2.29,0,0,0,.78-.91c.1-.26.17-.44.21-.56s.11-.26.17-.26a.35.35,0,0,1,.17,0,.19.19,0,0,1,.09.19v0a7.52,7.52,0,0,0-.12.87q0,.4,0,.78a6,6,0,0,0,.26,1.85,4.31,4.31,0,0,0,.68,1.3,2.71,2.71,0,0,0,1,.77,2.83,2.83,0,0,0,1.13.24,2.74,2.74,0,0,0,1.88-.75,6,6,0,0,1-.58-2.83,2.58,2.58,0,0,1,.42-1.54,1.14,1.14,0,0,1,.88-.57.71.71,0,0,1,.58.36,2,2,0,0,1,.26,1.17,6.47,6.47,0,0,1-.27,1.95,4.5,4.5,0,0,1-.77,1.46,3,3,0,0,0,1.1,1,2.78,2.78,0,0,0,1.3.32,3.14,3.14,0,0,0,1.81-.62,3.51,3.51,0,0,0,1.29-1.87,2.55,2.55,0,0,1-1.48-.41,3.69,3.69,0,0,1-1-1.07,4.8,4.8,0,0,1-.59-1.44,6.28,6.28,0,0,1-.19-1.53,4.14,4.14,0,0,1,.32-1.73,1,1,0,0,1,.95-.73,1.6,1.6,0,0,1,1.08.41,3.34,3.34,0,0,1,.81,1.05,5.82,5.82,0,0,1,.51,1.51,8.6,8.6,0,0,1,.17,1.78,7.09,7.09,0,0,1-.2,1.82,5.24,5.24,0,0,0,1.72-.38,5.84,5.84,0,0,0,1.75-1.13l.23.15Zm-3.79-.17a8,8,0,0,0-.17-1.7,7.06,7.06,0,0,0-.46-1.47,3.27,3.27,0,0,0-.7-1,1.22,1.22,0,0,0-.86-.39c-.25,0-.45.18-.58.55a3.73,3.73,0,0,0-.2,1.33,7,7,0,0,0,.15,1.4,5.14,5.14,0,0,0,.5,1.36,3.32,3.32,0,0,0,.85,1,2.1,2.1,0,0,0,1.27.45q.09-.34.15-.72a5.34,5.34,0,0,0,.05-.81Zm-5-.09a2.22,2.22,0,0,0-.18-1,.63.63,0,0,0-.6-.37c-.23,0-.41.15-.53.46a3.09,3.09,0,0,0-.19,1.19,5.15,5.15,0,0,0,.55,2.51,3.7,3.7,0,0,0,.69-1.2A4.53,4.53,0,0,0,179.78,23.74Z"></path><path class="cls-4" d="M200.57,26.86a4.08,4.08,0,0,1-2.89,1.59,3.8,3.8,0,0,1-3.06-1.34,7.1,7.1,0,0,1-1.28-4.21q-.1,0-.24.39c-.09.26-.19.52-.3.77s-.33.73-.57,1.23-.5,1-.78,1.43a8.38,8.38,0,0,1-.85,1.18,1.16,1.16,0,0,1-.81.49.37.37,0,0,1-.38-.27,2.6,2.6,0,0,1-.11-.51c-.14-1.75-.25-3.17-.35-4.25s-.15-1.71-.17-1.91c0-.36.1-.55.31-.55a.57.57,0,0,1,.28.08c.09,0,.14.15.16.3v.94c0,.55,0,1.15,0,1.81s0,1.27,0,1.86,0,1,0,1.12c.1.59.24.89.41.89s.33-.19.58-.56.52-.83.81-1.37.57-1.1.84-1.67.48-1,.63-1.4c.25-.62.49-.93.73-.93a.35.35,0,0,1,.28.22,1.23,1.23,0,0,1,.09.51,8.65,8.65,0,0,0,.23,1.95,6.64,6.64,0,0,0,.68,1.75A3.85,3.85,0,0,0,196,27.66a2.88,2.88,0,0,0,1.62.47,2.74,2.74,0,0,0,1.25-.34,5.29,5.29,0,0,0,1.39-1.16Z"></path></svg> 